<?xml version="1.0" encoding="UTF-8"?>
<svg version="1.1" xmlns="http://www.w3.org/2000/svg" width="512" height="512">
<path d="M0 0 C4.07916246 0.00912942 8.1582588 -0.00495795 12.23740768 -0.01591969 C20.20831386 -0.03362608 28.17906865 -0.02990028 36.14998055 -0.01826912 C42.63307427 -0.00920386 49.11612583 -0.00802411 55.59922409 -0.01236439 C56.52495806 -0.01297732 57.45069203 -0.01359025 58.40447855 -0.01422176 C60.28559432 -0.01550077 62.16671007 -0.01679763 64.04782581 -0.01811212 C81.65148831 -0.02949484 99.25506723 -0.01644055 116.85871601 0.00508934 C131.93526508 0.02295822 147.01169092 0.01985346 162.08823776 0.0014143 C179.63260803 -0.02003331 197.17690522 -0.02839642 214.72128677 -0.01613665 C216.59514998 -0.01486257 218.4690132 -0.01360508 220.34287643 -0.01236439 C221.26464629 -0.01174729 222.18641614 -0.01113018 223.13611841 -0.01049438 C229.60495807 -0.00705314 236.07375104 -0.01284327 242.54258347 -0.0222826 C250.43521104 -0.03354732 258.32767966 -0.03036912 266.22028923 -0.00915962 C270.24060046 0.001291 274.26064751 0.00557612 278.28095627 -0.00775623 C313.97796935 -0.11635926 313.97796935 -0.11635926 330.84605026 8.27289867 C331.55165085 8.6143391 332.25725143 8.95577953 332.98423386 9.30756664 C338.97344293 12.3111062 343.99130382 16.04491375 348.97105026 20.52289867 C349.56659714 20.97793774 350.16214401 21.4329768 350.77573776 21.90180492 C359.43905734 28.58892948 365.63555628 38.0912188 370.34605026 47.83539867 C370.6553447 48.46099682 370.96463913 49.08659496 371.28330612 49.73115063 C378.87869135 66.36011274 378.55639351 83.29257742 378.49394894 101.19916058 C378.48481285 105.08200342 378.49891011 108.9647771 378.50986862 112.84760571 C378.52756808 120.43349889 378.52385237 128.01923293 378.51221806 135.6051321 C378.50315002 141.77548805 378.50197423 147.94579968 378.50631332 154.11616039 C378.50692626 154.99748858 378.50753919 155.87881678 378.50817069 156.78685188 C378.50944972 158.57777565 378.51074657 160.3686994 378.51206106 162.15962315 C378.52344174 178.91632531 378.51039271 195.67293966 378.48885959 212.42962742 C378.4709909 226.77847011 378.47409572 241.12718332 378.49253464 255.47602367 C378.51398587 272.17659158 378.52234334 288.8770827 378.51008558 305.57766247 C378.50881151 307.36165395 378.50755403 309.14564545 378.50631332 310.92963696 C378.50538767 312.24595309 378.50538767 312.24595309 378.50444332 313.58886147 C378.50100315 319.74511542 378.50678985 325.90132029 378.51623154 332.05756664 C378.52750032 339.56958005 378.52430968 347.08142647 378.50310856 354.59342098 C378.49266329 358.41931111 378.48836338 362.24492378 378.50170517 366.07081127 C378.55958514 384.16360106 378.44892259 400.85431197 370.22105026 417.39789867 C369.87960983 418.10349926 369.5381694 418.80909985 369.18638229 419.53608227 C366.18284274 425.52529134 362.44903519 430.54315223 357.97105026 435.52289867 C357.5160112 436.11844555 357.06097214 436.71399242 356.59214401 437.32758617 C349.90501946 445.99090575 340.40273013 452.1874047 330.65855026 456.89789867 C330.03295212 457.20719311 329.40735397 457.51648754 328.76279831 457.83515453 C326.5319474 458.85411001 324.27845512 459.68962756 321.97105026 460.52289867 C321.03654541 460.86329929 320.10204056 461.20369991 319.13921738 461.5544157 C305.08189447 465.83146012 290.48447105 465.0940235 275.94210052 465.04579735 C271.86293807 465.03666792 267.78384173 465.0507553 263.70469284 465.06171703 C255.73378666 465.07942343 247.76303188 465.07569763 239.79211998 465.06406647 C233.30902625 465.05500121 226.82597469 465.05382146 220.34287643 465.05816174 C219.41714246 465.05877467 218.49140849 465.0593876 217.53762197 465.06001911 C215.65650621 465.06129812 213.77539045 465.06259497 211.89427471 465.06390947 C194.29061222 465.07529219 176.6870333 465.0622379 159.08338451 465.04070801 C144.00683545 465.02283913 128.93040961 465.02594389 113.85386276 465.04438305 C96.30949249 465.06583066 78.7651953 465.07419376 61.22081375 465.06193399 C59.34695054 465.06065991 57.47308732 465.05940243 55.59922409 465.05816174 C54.67745424 465.05754463 53.75568439 465.05692753 52.80598211 465.05629173 C46.33714245 465.05285048 39.86834949 465.05864062 33.39951706 465.06807995 C25.50688949 465.07934467 17.61442086 465.07616646 9.72181129 465.05495697 C5.70150007 465.04450635 1.68145302 465.04022123 -2.33885574 465.05355358 C-38.03586883 465.16215661 -38.03586883 465.16215661 -54.90394974 456.77289867 C-55.96235062 456.26073803 -55.96235062 456.26073803 -57.04213333 455.73823071 C-63.03134241 452.73469115 -68.04920329 449.0008836 -73.02894974 444.52289867 C-73.62449661 444.06785961 -74.22004349 443.61282055 -74.83363724 443.14399242 C-83.49695681 436.45686787 -89.69345576 426.95457854 -94.40394974 417.21039867 C-94.86789139 416.27200146 -94.86789139 416.27200146 -95.3412056 415.31464672 C-102.93659082 398.68568461 -102.61429299 381.75321993 -102.55184841 363.84663677 C-102.54271233 359.96379393 -102.55680958 356.08102025 -102.5677681 352.19819164 C-102.58546756 344.61229846 -102.58175184 337.02656442 -102.57011753 329.44066525 C-102.5610495 323.2703093 -102.55987371 317.09999766 -102.5642128 310.92963696 C-102.5651322 309.60764467 -102.5651322 309.60764467 -102.56607017 308.25894547 C-102.56734919 306.4680217 -102.56864605 304.67709794 -102.56996053 302.8861742 C-102.58134122 286.12947204 -102.56829218 269.37285769 -102.54675907 252.61616993 C-102.52889038 238.26732724 -102.53199519 223.91861403 -102.55043411 209.56977367 C-102.57188535 192.86920577 -102.58024281 176.16871464 -102.56798506 159.46813488 C-102.56671099 157.6841434 -102.5654535 155.9001519 -102.5642128 154.11616039 C-102.5635957 153.2386163 -102.56297859 152.36107222 -102.56234279 151.45693588 C-102.55890263 145.30068193 -102.56468932 139.14447706 -102.57413101 132.98823071 C-102.58539979 125.4762173 -102.58220915 117.96437087 -102.56100804 110.45237637 C-102.55056276 106.62648624 -102.54626285 102.80087357 -102.55960464 98.97498608 C-102.61748462 80.88219629 -102.50682206 64.19148538 -94.27894974 47.64789867 C-93.93750931 46.94229809 -93.59606888 46.2366975 -93.24428177 45.50971508 C-90.24074222 39.520506 -86.50693466 34.50264512 -82.02894974 29.52289867 C-81.57391068 28.9273518 -81.11887161 28.33180492 -80.65004349 27.71821117 C-73.96291893 19.0548916 -64.46062961 12.85839265 -54.71644974 8.14789867 C-54.09085159 7.83860424 -53.46525345 7.52930981 -52.82069778 7.21064281 C-50.58984688 6.19168734 -48.3363546 5.35616979 -46.02894974 4.52289867 C-45.09444489 4.18249805 -44.15994003 3.84209743 -43.19711685 3.49138165 C-29.13979394 -0.78566277 -14.54237053 -0.04822615 0 0 Z " fill="#00005B" transform="translate(118.02894973754883,23.47710132598877)"/>
<path d="M0 0 C0.97484848 0.00222061 1.94969696 0.00444122 2.9540863 0.00672913 C4.05515213 0.00680466 5.15621796 0.00688019 6.29064941 0.00695801 C7.48854599 0.01211929 8.68644257 0.01728058 9.92063904 0.02259827 C11.14000656 0.02401321 12.35937408 0.02542816 13.61569214 0.02688599 C17.52856349 0.03250485 21.4413786 0.04506055 25.35423279 0.05775452 C27.99941426 0.06276709 30.64459662 0.06733041 33.28977966 0.07142639 C39.79045005 0.08248041 46.2910874 0.09923688 52.79173279 0.12025452 C56.13835581 7.25051563 58.82400634 14.55231208 61.43235779 21.97962952 C62.10550893 23.88200814 62.77866023 25.7843867 63.45181847 27.68676281 C64.16275572 29.69813662 64.87190217 31.71013324 65.58049011 33.72233582 C67.05960084 37.92256664 68.54366061 42.12103802 70.02854919 46.31922913 C71.77922477 51.26975311 73.52887842 56.22063536 75.27700233 61.17206097 C78.90589991 71.45012626 82.55320144 81.72159646 86.20838928 91.99034119 C87.48866884 95.58721613 88.76807743 99.18440063 90.04748535 102.78158569 C90.67873876 104.55641192 91.31003515 106.33122285 91.94137573 108.10601807 C93.89189494 113.58936496 95.84136675 119.07308303 97.78996277 124.55711365 C98.46601047 126.45967595 99.14215805 128.36220277 99.81840515 130.26469421 C101.4899918 134.96744543 103.16043547 139.67059548 104.82835388 144.37464905 C107.8726957 152.95450983 110.93215799 161.52813265 114.04428101 170.0836792 C115.45970415 173.97562109 116.86867157 177.86988807 118.27754211 181.76420593 C118.94730867 183.60905173 119.62052265 185.45265002 120.29737854 187.29490662 C121.2310943 189.8365504 122.15316965 192.38214657 123.07298279 194.92884827 C123.35024704 195.67358398 123.62751129 196.4183197 123.91317749 197.18562317 C125.38701467 201.30592577 126.09057175 204.74458235 125.79173279 209.12025452 C119.43818914 209.24688091 113.0849699 209.33453153 106.73045349 209.39491272 C104.56822042 209.42007951 102.40607261 209.4542161 100.24412537 209.49745178 C97.13868707 209.55800747 94.03437182 209.58644239 90.92845154 209.60853577 C89.95961533 209.63434219 88.99077911 209.66014862 87.99258423 209.68673706 C81.36450836 209.68951613 81.36450836 209.68951613 78.88157654 207.22181702 C78.5219281 206.19830139 78.16227966 205.17478577 77.79173279 204.12025452 C77.52415665 203.40975449 77.25658051 202.69925446 76.980896 201.96722412 C76.00633802 199.32990994 75.10758493 196.67393201 74.21751404 194.00697327 C73.92566223 193.14704773 73.63381042 192.28712219 73.33311462 191.40113831 C72.25044099 188.20549803 71.17793267 185.00642104 70.10423279 181.80775452 C67.69110779 174.65087952 65.27798279 167.49400452 62.79173279 160.12025452 C38.04173279 159.79025452 13.29173279 159.46025452 -12.20826721 159.12025452 C-12.86826721 162.09025452 -13.52826721 165.06025452 -14.20826721 168.12025452 C-14.64358696 169.68742036 -15.1003217 171.24915603 -15.59693909 172.79798889 C-15.85060242 173.5949115 -16.10426575 174.39183411 -16.36561584 175.21290588 C-16.6333783 176.03826843 -16.90114075 176.86363098 -17.17701721 177.71400452 C-17.59848022 179.02310791 -17.59848022 179.02310791 -18.02845764 180.35865784 C-18.61797334 182.18451098 -19.20967442 184.00965988 -19.80348206 185.8341217 C-20.71394495 188.63773815 -21.6117305 191.44521976 -22.50904846 194.25306702 C-23.08510695 196.03196058 -23.66190308 197.81061547 -24.23951721 199.58900452 C-24.50727966 200.43056091 -24.77504211 201.27211731 -25.05091858 202.13917542 C-25.71274499 204.15261174 -26.45327798 206.13986786 -27.20826721 208.12025452 C-30.64431486 209.83827834 -34.59265617 209.23991632 -38.37232971 209.21791077 C-39.27953766 209.21649582 -40.18674561 209.21508087 -41.1214447 209.21362305 C-44.02541877 209.20801547 -46.92931636 209.1954617 -49.83326721 209.18275452 C-51.79941193 209.17774049 -53.76555786 209.17317742 -55.73170471 209.16908264 C-60.55725511 209.15804358 -65.38274819 209.14077386 -70.20826721 209.12025452 C-70.74448705 202.49151749 -68.81972313 197.26263617 -66.57154846 191.07728577 C-66.18491028 189.98566132 -65.79827209 188.89403687 -65.3999176 187.76933289 C-64.1168475 184.15350315 -62.81868286 180.54327907 -61.52076721 176.93275452 C-60.61161274 174.38228888 -59.70603355 171.83056008 -58.80079651 169.27870178 C-57.38448159 165.28820787 -55.96719085 161.29807536 -54.54476929 157.30975342 C-51.26562773 148.11427848 -48.01979366 138.9076896 -44.80201721 129.69056702 C-44.5827293 129.06249712 -44.36344139 128.43442722 -44.13750839 127.78732491 C-43.03624495 124.63270364 -41.93548719 121.4779064 -40.83491516 118.32304382 C-33.8983912 98.44855443 -26.92015419 78.58885408 -19.89576721 58.74525452 C-19.55872772 57.79230499 -19.22168823 56.83935547 -18.87443542 55.85752869 C-17.90742799 53.12438526 -16.9388757 50.39179366 -15.96998596 47.65931702 C-15.66464935 46.79564514 -15.35931274 45.93197327 -15.04472351 45.04212952 C-13.3995442 40.40563117 -11.71607661 35.78653691 -9.9858551 31.18104553 C-9.61849747 30.19562775 -9.25113983 29.21020996 -8.87265015 28.19493103 C-8.17106655 26.31756983 -7.46194274 24.44300136 -6.74371338 22.57194519 C-4.33988633 16.12037425 -3.30072908 10.42458031 -3.24342346 3.50697327 C-3.19753332 0.39154272 -3.0989357 0.16875721 0 0 Z " fill="#9797FD" transform="translate(147.20826721191406,140.87974548339844)"/>
<path d="M0 0 C14.47307536 11.09681145 19.07620537 26.38488608 21.39453125 43.8359375 C21.64213572 47.5577572 21.66914141 51.25965389 21.65332031 54.98876953 C21.65857727 56.55202721 21.65857727 56.55202721 21.66394043 58.14686584 C21.67264943 61.5458976 21.66695159 64.94471664 21.66015625 68.34375 C21.66150499 70.72077474 21.66344727 73.0977992 21.66595459 75.474823 C21.66889026 80.43213554 21.66465465 85.38937561 21.65527344 90.34667969 C21.64381735 96.71125029 21.65048695 103.07565335 21.66241837 109.44021797 C21.66962601 114.33681516 21.66735517 119.23337219 21.66216278 124.12997055 C21.66082647 126.47841283 21.66247336 128.82685872 21.66712189 131.17529678 C21.67217582 134.4426475 21.66449567 137.70972085 21.65332031 140.97705078 C21.65736877 141.95153671 21.66141724 142.92602264 21.66558838 143.93003845 C21.65994873 144.81576035 21.65430908 145.70148224 21.64849854 146.61404419 C21.64736746 147.77148227 21.64736746 147.77148227 21.64621353 148.95230293 C21.39453125 150.8359375 21.39453125 150.8359375 19.39453125 152.8359375 C16.40491022 153.03600052 13.50990775 153.11566673 10.51953125 153.1015625 C9.6392627 153.10347595 8.75899414 153.1053894 7.85205078 153.10736084 C5.98925491 153.10872302 4.12644956 153.10502432 2.26367188 153.09667969 C-0.59396611 153.08598057 -3.45097541 153.09657382 -6.30859375 153.109375 C-8.11588681 153.10805341 -9.92317948 153.10549103 -11.73046875 153.1015625 C-12.58882324 153.10561096 -13.44717773 153.10965942 -14.33154297 153.11383057 C-20.3755513 153.06585495 -20.3755513 153.06585495 -22.60546875 150.8359375 C-22.80783692 147.78521977 -22.88543017 144.82369175 -22.87670898 141.77148438 C-22.88193573 140.83140533 -22.88716248 139.89132629 -22.89254761 138.92276001 C-22.90280922 136.87550024 -22.90857176 134.82821421 -22.910429 132.78092957 C-22.91408465 129.53502191 -22.93079268 126.28942202 -22.95118713 123.0435791 C-23.00665385 113.81263981 -23.0371902 104.58165353 -23.06176758 95.35058594 C-23.07770011 89.70717173 -23.10798832 84.06397217 -23.14653206 78.42066956 C-23.15814208 76.27423901 -23.16411206 74.12776993 -23.16421318 71.98130798 C-23.16440662 68.96582876 -23.18277693 65.9509346 -23.20483398 62.93554688 C-23.20025681 62.05826935 -23.19567963 61.18099182 -23.19096375 60.27713013 C-23.29662028 51.12791364 -25.32428601 42.07335353 -32.01953125 35.43359375 C-38.31211835 29.86707439 -43.80465753 29.39598849 -51.95703125 29.515625 C-59.84124591 30.20781515 -66.27803157 33.24854555 -72.60546875 37.8359375 C-73.59546875 38.1659375 -74.58546875 38.4959375 -75.60546875 38.8359375 C-75.60454696 39.41738746 -75.60362516 39.99883741 -75.60267544 40.59790707 C-75.58061935 54.72667996 -75.56405678 68.85545028 -75.55365658 82.98423672 C-75.54849382 89.81672724 -75.54145152 96.64920629 -75.5300293 103.48168945 C-75.51902168 110.06929055 -75.51319252 116.65688281 -75.51059151 123.24449348 C-75.50873675 125.76402029 -75.50511518 128.28354641 -75.49973869 130.80306816 C-75.49253199 134.31851515 -75.49147765 137.83391211 -75.49194336 141.34936523 C-75.48834808 142.40240341 -75.48475281 143.45544159 -75.48104858 144.54039001 C-75.48242325 145.49256409 -75.48379791 146.44473816 -75.48521423 147.42576599 C-75.48429244 148.25814506 -75.48337065 149.09052412 -75.48242092 149.94812679 C-75.60546875 151.8359375 -75.60546875 151.8359375 -76.60546875 152.8359375 C-79.62354938 152.9370745 -82.61827388 152.97562659 -85.63671875 152.96875 C-86.54296997 152.96970673 -87.44922119 152.97066345 -88.38293457 152.97164917 C-90.30297922 152.97233103 -92.22302616 152.97047632 -94.14306641 152.96630859 C-97.09282579 152.96096042 -100.04243289 152.96625338 -102.9921875 152.97265625 C-104.85286492 152.97199547 -106.71354225 152.97071431 -108.57421875 152.96875 C-109.90700867 152.97178635 -109.90700867 152.97178635 -111.26672363 152.97488403 C-117.49051887 152.95088738 -117.49051887 152.95088738 -118.60546875 151.8359375 C-118.71453765 149.78598962 -118.7523813 147.73224434 -118.76368713 145.6794281 C-118.76862511 145.02928885 -118.77356309 144.3791496 -118.7786507 143.70930916 C-118.79409682 141.51511181 -118.80240542 139.32094387 -118.81079102 137.12670898 C-118.82036396 135.56007627 -118.83037369 133.99344618 -118.84078979 132.42681885 C-118.86790819 128.16050187 -118.88888007 123.89417375 -118.90879178 119.62781787 C-118.93060872 115.17414474 -118.95801833 110.72050621 -118.98484802 106.26686096 C-119.03483314 97.82728816 -119.0797503 89.38769621 -119.12287039 80.94808584 C-119.17219314 71.34241849 -119.22712961 61.73678584 -119.28254998 52.13115203 C-119.39645932 32.36611284 -119.50327876 12.60104053 -119.60546875 -7.1640625 C-114.39108832 -7.2628989 -109.17725232 -7.33551456 -103.9621582 -7.38378906 C-102.18797306 -7.40391153 -100.41385429 -7.4312128 -98.63989258 -7.46582031 C-96.09049108 -7.51431242 -93.5419658 -7.53702403 -90.9921875 -7.5546875 C-90.19834152 -7.57533264 -89.40449554 -7.59597778 -88.58659363 -7.61724854 C-83.08885852 -7.61949149 -83.08885852 -7.61949149 -80.61328125 -5.28710938 C-79.48447372 -2.90917568 -79.11065344 -1.03457422 -78.91796875 1.5859375 C-78.81935547 2.78476563 -78.81935547 2.78476563 -78.71875 4.0078125 C-78.66267578 4.91273438 -78.66267578 4.91273438 -78.60546875 5.8359375 C-77.74566406 5.24425781 -76.88585937 4.65257812 -76 4.04296875 C-53.603278 -11.04776826 -23.47844942 -16.29397514 0 0 Z " fill="#9797FD" transform="translate(414.60546875,197.1640625)"/>
<path d="M0 0 C2 1 2 1 3.00341797 3.88696289 C3.38162238 5.2260845 3.75216947 6.56738036 4.1171875 7.91015625 C4.55906573 9.47202919 5.0028808 11.03335498 5.44824219 12.59423828 C5.69344604 13.4567218 5.9386499 14.31920532 6.19128418 15.20782471 C7.69103834 20.38588159 9.29178823 25.53299857 10.8828125 30.68359375 C11.22648865 31.79892487 11.57016479 32.91425598 11.92425537 34.06338501 C12.99017646 37.52173072 14.05750517 40.97963977 15.125 44.4375 C16.20215439 47.92942462 17.27898976 51.42144718 18.35543823 54.91358948 C19.01946224 57.06749085 19.68392176 59.22125802 20.34890747 61.37486267 C20.94932433 63.32139851 21.54812797 65.26843291 22.14508057 67.21603394 C22.72204152 69.09485391 23.30432391 70.97204685 23.89154053 72.84768677 C24.16693665 73.73849945 24.44233276 74.62931213 24.72607422 75.54711914 C24.97187225 76.33437881 25.21767029 77.12163849 25.47091675 77.93275452 C26 80 26 80 26 83 C9.5 83 -7 83 -24 83 C-22.89415042 75.25905292 -22.89415042 75.25905292 -21.3125 71.375 C-19.36103887 66.21059751 -17.80108605 60.99839087 -16.3125 55.6875 C-13.41598408 45.36397147 -10.35028145 35.09559692 -7.24731445 24.83276367 C-4.75547947 16.57554998 -2.34674504 8.29940604 0 0 Z " fill="#02025D" transform="translate(172,177)"/>
</svg>
