<?xml version="1.0" encoding="UTF-8"?>
<svg version="1.1" xmlns="http://www.w3.org/2000/svg" width="512" height="512">
<path d="M0 0 C0.72880371 0.20898926 1.45760742 0.41797852 2.20849609 0.63330078 C23.56108106 6.9329032 43.00954091 18.85031065 55 38 C62.23388291 51.45466674 64.11478788 65.65704684 61.3125 80.6875 C57.79892767 91.93093146 51.16412178 100.68519812 43 109 C42.33484375 109.68964844 41.6696875 110.37929687 40.984375 111.08984375 C18.7191762 132.54771664 -14.4572916 137.49853627 -43.93359375 137.20703125 C-57.85901143 136.9064296 -69.99941827 134.10656435 -83.01147461 129.16186523 C-83.8494458 128.85450439 -84.68741699 128.54714355 -85.55078125 128.23046875 C-86.65933472 127.80350708 -86.65933472 127.80350708 -87.7902832 127.36791992 C-92.36968474 126.60544527 -95.92225993 129.46140536 -99.51171875 132.01171875 C-100.35283203 132.60533203 -101.19394531 133.19894531 -102.06054688 133.81054688 C-102.92744141 134.42994141 -103.79433594 135.04933594 -104.6875 135.6875 C-107.25593758 137.50591474 -109.8243485 139.32431027 -112.39599609 141.13818359 C-114.19075192 142.42140204 -115.96896056 143.72797555 -117.73291016 145.05322266 C-118.61124512 145.70210449 -119.48958008 146.35098633 -120.39453125 147.01953125 C-121.1831958 147.61483643 -121.97186035 148.2101416 -122.78442383 148.82348633 C-125 150 -125 150 -127.2253418 149.8737793 C-127.810979 149.58543213 -128.39661621 149.29708496 -129 149 C-130.32379531 145.02861407 -128.94175252 142.92738098 -127.2890625 139.3203125 C-127.00147064 138.67053436 -126.71387878 138.02075623 -126.41757202 137.35128784 C-125.49579654 135.27167128 -124.56133128 133.19809899 -123.625 131.125 C-122.69741322 129.0583983 -121.77272244 126.99062782 -120.85385132 124.9201355 C-120.28168446 123.63215799 -119.70430416 122.34648011 -119.1210022 121.06350708 C-117.64116308 117.74587717 -116.34312167 114.63525657 -116 111 C-117.64266989 108.29842646 -117.64266989 108.29842646 -120.0625 105.75 C-120.89394531 104.780625 -121.72539062 103.81125 -122.58203125 102.8125 C-123.37996094 101.884375 -124.17789062 100.95625 -125 100 C-134.68095545 87.97930143 -137.36934667 74.2576864 -136.24365234 59.19482422 C-134.65122469 44.85021034 -126.84799614 34.0129542 -117 24 C-116.32324219 23.31035156 -115.64648438 22.62070312 -114.94921875 21.91015625 C-103.38970781 10.91664773 -89.08733551 4.55845675 -74 0 C-73.25782227 -0.2259082 -72.51564453 -0.45181641 -71.75097656 -0.68457031 C-49.64896197 -7.03706987 -21.97629515 -6.51352832 0 0 Z M-91 50 C-90.62095792 53.29075996 -90.62095792 53.29075996 -89 56 C-87.53724303 56.10213815 -86.06959589 56.13518536 -84.60328674 56.14044189 C-83.65400299 56.14615204 -82.70471924 56.15186218 -81.72666931 56.15774536 C-80.15182518 56.15942215 -80.15182518 56.15942215 -78.54516602 56.16113281 C-76.89653564 56.16858017 -76.89653564 56.16858017 -75.21459961 56.17617798 C-71.56102891 56.19084195 -67.9075016 56.19760819 -64.25390625 56.203125 C-61.72663877 56.20887239 -59.19937131 56.21463017 -56.67210388 56.22039795 C-52.04568733 56.22957289 -47.41928392 56.23586869 -42.79286057 56.2388947 C-35.97493232 56.24337811 -29.15720428 56.26093689 -22.33933693 56.2898953 C-16.44201941 56.31407795 -10.54475202 56.32183712 -4.64738274 56.32357025 C-2.13425544 56.32660773 0.37887079 56.33467274 2.89196587 56.34775543 C6.40005754 56.36471591 9.90765603 56.36296025 13.41577148 56.35644531 C14.98757927 56.37026749 14.98757927 56.37026749 16.59114075 56.3843689 C17.54324432 56.37879974 18.4953479 56.37323059 19.4763031 56.36749268 C20.30646155 56.36895924 21.13662001 56.3704258 21.99193478 56.3719368 C22.6545963 56.24919765 23.31725782 56.12645851 24 56 C26.24586971 53.31126059 26.24586971 53.31126059 25.8125 50.9375 C25.0589579 48.64006462 25.0589579 48.64006462 22 47 C19.88681115 46.697145 19.88681115 46.697145 17.52809143 46.73930359 C16.61260529 46.73221878 15.69711914 46.72513397 14.75389099 46.71783447 C13.25065025 46.7215506 13.25065025 46.7215506 11.71704102 46.7253418 C10.65988892 46.72023087 9.60273682 46.71511993 8.5135498 46.70985413 C5.0102781 46.6959255 1.5072024 46.69691736 -1.99609375 46.69921875 C-4.42603123 46.69533366 -6.85596802 46.69099939 -9.28590393 46.68623352 C-14.38276367 46.67876429 -19.47955415 46.67906773 -24.57641602 46.68432617 C-31.11485577 46.69012212 -37.65301237 46.6731899 -44.1914053 46.6499815 C-49.2107764 46.63526515 -54.23007899 46.6343696 -59.24946785 46.63749123 C-61.6604576 46.63697697 -64.07145107 46.63171984 -66.48241997 46.62167931 C-69.85101715 46.60937293 -73.21905851 46.61607205 -76.58764648 46.62768555 C-78.08785088 46.61621994 -78.08785088 46.61621994 -79.61836243 46.60452271 C-80.5366684 46.61153702 -81.45497437 46.61855133 -82.40110779 46.6257782 C-83.59543757 46.62552659 -83.59543757 46.62552659 -84.81389523 46.62526989 C-87.52632725 47.09022013 -88.93938455 48.22329652 -91 50 Z M-91 79 C-90.62095792 82.29075996 -90.62095792 82.29075996 -89 85 C-86.63777782 85.10556617 -84.30464616 85.14678498 -81.94165039 85.14526367 C-81.20344559 85.14862228 -80.46524078 85.1519809 -79.70466614 85.15544128 C-77.25231262 85.16497882 -74.80002718 85.16689579 -72.34765625 85.16796875 C-70.64993765 85.17117939 -68.95221934 85.17454331 -67.25450134 85.17805481 C-63.69090127 85.1840531 -60.12732547 85.18589399 -56.5637207 85.18530273 C-51.98906956 85.18520107 -47.4145735 85.1988542 -42.83995914 85.21607494 C-39.3321816 85.22717344 -35.82444179 85.22922261 -32.31664848 85.22869301 C-30.62968855 85.22987634 -28.94272773 85.23431778 -27.25578499 85.24202538 C-24.89965975 85.25178209 -22.54387442 85.24896453 -20.18774414 85.24291992 C-19.13490234 85.25134918 -19.13490234 85.25134918 -18.06079102 85.25994873 C-14.08609052 85.33778779 -14.08609052 85.33778779 -11 83 C-11.16442277 79.93008319 -11.16442277 79.93008319 -12 77 C-14.94458928 75.52770536 -17.57759293 75.85639757 -20.86474609 75.83886719 C-21.92356239 75.83141983 -21.92356239 75.83141983 -23.00376892 75.82382202 C-25.34366829 75.80919279 -27.68349987 75.80239716 -30.0234375 75.796875 C-31.64767458 75.79112416 -33.27191164 75.78536642 -34.89614868 75.77960205 C-38.30414141 75.76908989 -41.71211053 75.76324864 -45.12011719 75.75976562 C-49.48722947 75.75428045 -53.85403004 75.73025304 -58.22104454 75.70179367 C-61.57706616 75.6831706 -64.93301264 75.67796187 -68.28908157 75.67642975 C-69.89904103 75.67340192 -71.50899912 75.66536898 -73.11890793 75.65224457 C-75.37166816 75.63519053 -77.62366626 75.63706233 -79.87646484 75.64355469 C-81.7993483 75.63808624 -81.7993483 75.63808624 -83.76107788 75.63250732 C-87.1740948 76.01975304 -88.54513672 76.66680296 -91 79 Z " fill="#000000" transform="translate(434,20)"/>
<path d="M0 0 C1.2951503 -0.00861557 2.5903006 -0.01723114 3.92469788 -0.02610779 C7.46203281 -0.04853017 10.9989188 -0.04567904 14.53629756 -0.03678632 C17.49595127 -0.03166081 20.45552178 -0.03898164 23.41516691 -0.04625839 C30.40055046 -0.0632348 37.38571544 -0.05971465 44.37109375 -0.04296875 C51.56322447 -0.02604949 58.75474814 -0.04188383 65.94681257 -0.07419163 C72.13560806 -0.10093321 78.3242151 -0.10815128 84.51306254 -0.09967655 C88.20329774 -0.09476055 91.89316786 -0.09689026 95.58335686 -0.11746407 C99.70048479 -0.13932126 103.81647046 -0.12037135 107.93359375 -0.09765625 C109.14683319 -0.10934845 110.36007263 -0.12104065 111.6100769 -0.13308716 C118.58389393 -0.05488072 123.77413473 0.66914084 129.03149414 5.53344727 C133.78325337 11.60500725 134.18103851 17.87965766 134.19262695 25.31787109 C134.19759186 26.08603653 134.20255676 26.85420197 134.20767212 27.64564514 C134.2222311 30.17726551 134.22908518 32.70882323 134.23461914 35.24047852 C134.24037565 37.00778707 134.24613332 38.77509563 134.25189209 40.54240417 C134.26238419 44.24523203 134.2682386 47.94803829 134.27172852 51.65087891 C134.27721014 56.38182638 134.30123864 61.11248561 134.32970047 65.84334278 C134.34837796 69.49375732 134.35353516 73.14410311 134.35506439 76.79456139 C134.3580798 78.53797672 134.36607054 80.28139116 134.37924957 82.02475929 C134.39641788 84.47033904 134.3944039 86.91522332 134.38793945 89.36083984 C134.39715424 90.07228149 134.40636902 90.78372314 134.41586304 91.51672363 C134.35622791 98.76508747 132.23656506 105.32837635 127.03149414 110.53344727 C121.89244452 113.53122621 117.71390674 114.65473276 111.82086182 114.67388916 C110.23968063 114.68245438 110.23968063 114.68245438 108.6265564 114.69119263 C107.47531281 114.69231049 106.32406921 114.69342834 105.13793945 114.69458008 C103.31291397 114.70202744 103.31291397 114.70202744 101.45101929 114.70962524 C98.11609857 114.72172303 94.78124047 114.72918934 91.44630527 114.7336359 C89.36038762 114.73657118 87.2744754 114.74067688 85.18856049 114.74514008 C78.65531734 114.75880917 72.12208669 114.76847831 65.58883023 114.77234197 C58.06012379 114.77681937 50.53159921 114.79435482 43.00294805 114.82334256 C37.17518599 114.84499835 31.34747495 114.85504835 25.51967311 114.85638309 C22.04296414 114.85742847 18.56642625 114.86327885 15.08975983 114.8812027 C11.20732328 114.9008295 7.32511182 114.89637888 3.44262695 114.88989258 C1.72790695 114.90371475 1.72790695 114.90371475 -0.02145386 114.91781616 C-8.49580142 114.87351831 -15.69936928 113.80258384 -21.96850586 107.53344727 C-25.08833572 102.51323594 -25.40944667 98.53330238 -25.38842773 92.80932617 C-25.39689728 91.95323257 -25.40536682 91.09713898 -25.41409302 90.21510315 C-25.43741354 87.39658585 -25.43848631 84.57861609 -25.43725586 81.76000977 C-25.44436074 79.79234602 -25.45206021 77.82468435 -25.46032715 75.85702515 C-25.47376084 71.73641194 -25.47534584 67.61599028 -25.46948242 63.49536133 C-25.46358933 58.22724141 -25.49416713 52.96004402 -25.5345993 47.69210243 C-25.56050983 43.62902923 -25.56335063 39.56617711 -25.55970764 35.50303268 C-25.56139594 33.56144265 -25.57101041 31.61984208 -25.58885193 29.67833328 C-25.61110694 26.95705546 -25.60130702 24.23763151 -25.58374023 21.51635742 C-25.59700348 20.72233017 -25.61026672 19.92830292 -25.62393188 19.11021423 C-25.53520428 13.1639099 -23.89065644 9.03681691 -19.96850586 4.53344727 C-13.85559519 -0.48941358 -7.66792196 -0.04117619 0 0 Z M41.32299805 35.44555664 C38.45964295 39.30403898 38.30643317 42.31206833 38.36743164 46.93969727 C38.36264801 47.74201782 38.35786438 48.54433838 38.35293579 49.37097168 C38.34954347 51.06203174 38.35869931 52.75315798 38.37963867 54.4440918 C38.40641847 57.0261517 38.37987318 59.6038656 38.34790039 62.18579102 C38.35120461 63.83293598 38.35761112 65.48007826 38.36743164 67.12719727 C38.35731049 67.8950354 38.34718933 68.66287354 38.33676147 69.45397949 C38.42266152 73.40132007 38.92891991 75.39134882 41.26049805 78.62133789 C43.80506259 80.76146821 43.80506259 80.76146821 46.47119141 80.54614258 C49.48000532 79.35604435 52.19195899 77.94844514 54.99633789 76.33032227 C56.69113281 75.35385742 56.69113281 75.35385742 58.42016602 74.35766602 C59.00338623 74.01654785 59.58660645 73.67542969 60.1875 73.32397461 C61.9549501 72.29165005 63.72983155 71.27315651 65.50610352 70.25610352 C73.75540731 65.55390461 73.75540731 65.55390461 81.03149414 59.53344727 C81.76237745 56.48632743 81.76237745 56.48632743 80.03149414 53.53344727 C73.74956482 48.44488532 66.23988142 44.67555108 59.21899414 40.72094727 C58.19612305 40.13635742 57.17325195 39.55176758 56.11938477 38.94946289 C55.13518555 38.39323242 54.15098633 37.83700195 53.13696289 37.26391602 C52.25161865 36.7627124 51.36627441 36.26150879 50.45410156 35.74511719 C45.83969373 33.16253609 45.83969373 33.16253609 41.32299805 35.44555664 Z " fill="#000000" transform="translate(40.968505859375,75.466552734375)"/>
<path d="M0 0 C0.66 0 1.32 0 2 0 C6.16342878 14.39708275 10.14584181 28.83370749 14 43.31640625 C14.55916755 45.4118913 15.11851351 47.50732874 15.67802429 49.60272217 C16.85165804 53.99925294 18.02423445 58.3960636 19.19589233 62.79312134 C21.91768608 73.00738632 24.64491066 83.22020185 27.37155724 93.43317223 C28.26509614 96.78026161 29.15841798 100.12740886 30.05171204 103.4745636 C34.57634656 120.42611987 39.12002031 137.37243614 43.6875 154.3125 C43.9750415 155.37912872 44.26258301 156.44575745 44.55883789 157.54470825 C46.03784225 163.03017952 47.51807554 168.51531691 49 174 C45.42234239 175.19255254 44.41666971 174.47105877 41.16723633 172.8527832 C40.21820435 172.36878052 40.21820435 172.36878052 39.25 171.875 C0.52313556 153.09876381 -43.96816585 154.53399079 -85.23193359 162.55102539 C-89.13834692 163.1846375 -93.06478102 163.58869294 -97 164 C-101.89251837 147.54098266 -106.50336288 131.01681671 -110.93676758 114.4284668 C-111.95634971 110.61703546 -112.98289765 106.80752097 -114.00976562 102.99804688 C-114.66187257 100.56521516 -115.3135811 98.13227661 -115.96484375 95.69921875 C-116.27099106 94.56506027 -116.57713837 93.43090179 -116.89256287 92.26237488 C-117.1702803 91.21890396 -117.44799774 90.17543304 -117.73413086 89.1003418 C-117.97949081 88.18455856 -118.22485077 87.26877533 -118.47764587 86.32524109 C-119 84 -119 84 -119 81 C-117.91005737 80.65557861 -117.91005737 80.65557861 -116.7980957 80.30419922 C-91.06958946 72.06801933 -66.02427157 61.95598587 -44 46 C-43.42443359 45.58830566 -42.84886719 45.17661133 -42.25585938 44.75244141 C-26.08423054 33.08576632 -11.44682384 19.27194013 -1.33984375 1.94921875 C-0.89769531 1.30597656 -0.45554687 0.66273438 0 0 Z " fill="#000000" transform="translate(215,220)"/>
<path d="M0 0 C5.35646662 2.75310865 8.08966107 6.93393584 10.08267212 12.49043274 C10.38619598 13.64125839 10.68971985 14.79208405 11.00244141 15.9777832 C11.2633812 16.94821076 11.2633812 16.94821076 11.52959251 17.93824291 C12.10716719 20.09678428 12.66870927 22.25916861 13.23046875 24.421875 C13.64564352 25.98582178 14.06185121 27.54949467 14.47900391 29.11291504 C15.37914776 32.49495462 16.27226153 35.87874476 17.15997314 39.2640686 C18.58447908 44.69613553 20.02415564 50.12410913 21.46630859 55.55151367 C23.00386231 61.34101708 24.54017132 67.13083988 26.07119751 72.92207336 C29.93544471 87.53817251 33.83456536 102.14467592 37.75390625 116.74609375 C38.03824902 117.80552877 38.32259178 118.8649638 38.61555099 119.95650291 C40.04173673 125.26995858 41.4683571 130.58329741 42.89520264 135.89657593 C44.51682674 141.93568185 46.13694869 147.97518964 47.75634766 154.01489258 C48.14382266 155.45957082 48.14382266 155.45957082 48.53912544 156.93343449 C49.81669804 161.69802753 51.09216507 166.46316729 52.36343384 171.22944641 C54.71724215 180.04865247 57.08667901 188.86260429 59.51437569 197.66180515 C60.65041878 201.78482009 61.77604084 205.91064592 62.90058517 210.03680992 C63.43595906 211.99023999 63.97624808 213.9423308 64.52186966 215.89292336 C71.15634693 239.62314231 71.15634693 239.62314231 67.31640625 247.74609375 C62.78963941 252.63023692 58.7949239 254.95041018 52.1796875 255.40625 C47.34366947 255.19525445 44.00812045 253.21423401 40.39723206 250.14859009 C37.62612982 246.94399789 36.48952148 243.99541466 35.39819336 239.99365234 C35.19329001 239.2917597 34.98838667 238.58986706 34.77727413 237.86670494 C34.14673638 235.68542713 33.54117846 233.49851037 32.94140625 231.30859375 C32.75823475 230.65206062 32.57506325 229.9955275 32.38634109 229.31909943 C31.0914432 224.67314254 29.85752951 220.01240738 28.6328125 215.34765625 C28.22987149 213.82428547 27.82657555 212.30100854 27.42295837 210.77781677 C26.56228045 207.52744024 25.70364611 204.27653402 24.84667969 201.025177 C22.76454169 193.12656187 20.67064815 185.23105816 18.57802963 177.33521461 C17.84668114 174.57532925 17.11572691 171.81533965 16.38479614 169.05534363 C11.34251621 150.02167101 6.24816342 131.00204467 1.143013 111.9851532 C0.44265024 109.37572864 -0.257292 106.76619166 -0.95709229 104.15661621 C-5.37440393 87.68491979 -9.79967248 71.2157147 -14.296875 54.765625 C-14.6108725 53.6151619 -14.92487 52.46469879 -15.24838257 51.27937317 C-16.6480745 46.15178399 -18.05248972 41.02562603 -19.46875 35.90258789 C-19.94291361 34.17079187 -20.41688624 32.43894354 -20.890625 30.70703125 C-21.09988113 29.95907791 -21.30913727 29.21112457 -21.5247345 28.44050598 C-23.51344406 21.12655314 -24.9537971 14.61553554 -22.05859375 7.30859375 C-17.09143264 -0.49694514 -8.7056113 -2.92389601 0 0 Z " fill="#000000" transform="translate(242.05859375,173.69140625)"/>
<path d="M0 0 C5.294262 3.95925357 9.91835927 7.56170136 12 14 C12.66 14 13.32 14 14 14 C14.2784375 12.9790625 14.2784375 12.9790625 14.5625 11.9375 C17.94609234 5.02320262 23.92342873 0.71390156 31 -2 C38.9655866 -4.45729276 47.32718621 -3.63481689 54.8203125 -0.1875 C63.13524745 4.3425004 68.22590537 11.59537688 70.875 20.5625 C73.48783334 31.84305593 71.10793886 40.10631601 65.1105957 50.05175781 C56.49762028 63.7067982 45.08286212 75.33992175 33.95410156 86.94482422 C31.94404104 89.05885339 29.96825656 91.20186641 27.9921875 93.34765625 C26.68349403 94.73290773 25.37363679 96.11706089 24.0625 97.5 C23.47235107 98.15347412 22.88220215 98.80694824 22.27416992 99.48022461 C19.46927784 102.38513671 17.20485301 104.43773673 13.09375 104.90625 C7.41094548 104.39654457 4.09022992 99.9733768 0.4375 96 C-0.27857422 95.25621094 -0.99464844 94.51242187 -1.73242188 93.74609375 C-5.77630494 89.51455096 -9.64112542 85.14147661 -13.47436523 80.71972656 C-15.30167029 78.65995111 -17.24520665 76.76140005 -19.25 74.875 C-30.59670825 63.62494174 -45.55909108 46.90867221 -46.0859375 30.2890625 C-45.52005368 19.65640338 -41.72335814 11.30060591 -34 4 C-24.76017227 -4.0515572 -10.95365231 -6.00380599 0 0 Z " fill="#000000" transform="translate(394,392)"/>
<path d="M0 0 C2.74390744 10.22967851 5.48246414 20.4607728 8.21417999 30.69371414 C9.48276312 35.44511986 10.75319107 40.19601626 12.02783203 44.94580078 C13.25762903 49.52875068 14.48258384 54.11296953 15.70417786 58.69811249 C16.17132484 60.44807854 16.64022112 62.19757859 17.11088562 63.94660187 C17.7693021 66.3945094 18.42150579 68.84399299 19.07226562 71.29394531 C19.36681389 72.38043617 19.36681389 72.38043617 19.66731262 73.48887634 C20.54549129 76.81982896 21 79.52224528 21 83 C15.15976006 84.71548683 9.31691222 86.42107389 3.46875 88.109375 C-0.36083633 89.21793946 -4.17268378 90.35998435 -7.96875 91.578125 C-20.86221187 95.6258277 -34.87025361 97.86830109 -47.68359375 92.25390625 C-58.9750948 86.14164346 -66.58790892 77.02436838 -71 65 C-74.05651895 54.31319816 -73.19922499 40.76479443 -68 31 C-67.5875 30.21496094 -67.175 29.42992187 -66.75 28.62109375 C-58.9131744 15.46324167 -46.42146335 11.00907143 -32.34375 7.421875 C-29.65293317 6.7485198 -26.96017869 6.08402222 -24.265625 5.42578125 C-21.47726839 4.74444552 -18.69162512 4.05278886 -15.90625 3.359375 C-14.13556323 2.92128219 -12.36473491 2.48376102 -10.59375 2.046875 C-9.76049194 1.84068542 -8.92723389 1.63449585 -8.06872559 1.42205811 C-2.23460184 0 -2.23460184 0 0 0 Z " fill="#000000" transform="translate(88,304)"/>
<path d="M0 0 C0.40202637 0.75394043 0.80405273 1.50788086 1.21826172 2.28466797 C10.55643284 19.82998012 10.55643284 19.82998012 20.125 37.25 C21.3014956 39.36078623 22.4774962 41.47184746 23.65332031 43.58300781 C24.65156624 45.37463846 25.65111719 47.16554212 26.65136719 48.95605469 C28.4438297 52.17382512 30.22287219 55.39873941 32 58.625 C32.84715576 60.13755371 32.84715576 60.13755371 33.71142578 61.68066406 C38.29265349 70.03836585 41.0233998 76.71388478 38.95703125 86.3125 C36.94979026 91.94916041 33.0342475 95.45009714 28.375 99 C20.76903683 101.25361872 12.7303462 101.17700251 5.68359375 97.36328125 C1.59076108 94.04913136 -0.93924247 89.57234197 -3.43359375 85.01171875 C-3.74766174 84.44045761 -4.06172974 83.86919647 -4.38531494 83.28062439 C-5.40735285 81.41875062 -6.42245704 79.55319494 -7.4375 77.6875 C-8.15366703 76.37983426 -8.87022479 75.07238244 -9.5871582 73.76513672 C-14.51278426 64.77312833 -19.38657859 55.75299671 -24.2487793 46.7265625 C-28.69909567 38.49044718 -33.29547031 30.34044391 -37.9519043 22.21923828 C-38.46793213 21.31544434 -38.98395996 20.41165039 -39.515625 19.48046875 C-40.20060059 18.28780396 -40.20060059 18.28780396 -40.89941406 17.07104492 C-42 15 -42 15 -43 12 C-42.36199463 11.8141333 -41.72398926 11.6282666 -41.06665039 11.43676758 C-39.15328591 10.87926845 -37.23995926 10.32163946 -35.32666016 9.76391602 C-33.14282791 9.1273869 -30.95890799 8.49115853 -28.77490234 7.85522461 C-23.74356854 6.38902016 -18.71364454 4.91897203 -13.69140625 3.421875 C-12.9120874 3.19008545 -12.13276855 2.9582959 -11.32983398 2.71948242 C-9.8872583 2.28963288 -8.44533367 1.85759081 -7.00415039 1.4230957 C-2.22165524 0 -2.22165524 0 0 0 Z " fill="#000000" transform="translate(109,396)"/>
<path d="M0 0 C3.04317386 -0.13558695 6.08025562 -0.23437239 9.125 -0.3125 C10.40890625 -0.3753418 10.40890625 -0.3753418 11.71875 -0.43945312 C16.18845283 -0.52540895 18.50789762 -0.28957045 22.4453125 2.02734375 C25.47633791 5.55427088 26.59844373 8.44275106 27.75 12.875 C27.94464844 13.55691406 28.13929688 14.23882812 28.33984375 14.94140625 C28.72493812 16.29828238 29.10011332 17.65801663 29.46484375 19.02050781 C29.98143923 20.93134547 30.54460295 22.82940568 31.109375 24.7265625 C32.42765733 29.57182824 33.40994617 34.27447414 31.0078125 38.91796875 C27.10946682 43.90652974 21.68579055 47.32836348 16 50 C15.01 50 14.02 50 13 50 C11.63043448 45.07455832 10.26122771 40.1490171 8.89233398 35.22338867 C8.42791112 33.55246373 7.96339516 31.88156465 7.4987793 30.21069336 C6.39227458 26.23132603 5.28704777 22.25161644 4.18505859 18.27099609 C3.46567491 15.67289852 2.73930321 13.07724865 2.00634766 10.48291016 C1.73226074 9.50499512 1.45817383 8.52708008 1.17578125 7.51953125 C0.94415283 6.70202393 0.71252441 5.8845166 0.47387695 5.04223633 C0 3 0 3 0 0 Z " fill="#000000" transform="translate(283,269)"/>
<path d="M0 0 C2.97509766 1.36352539 2.97509766 1.36352539 5.9140625 3.09765625 C6.99961426 3.73058594 8.08516602 4.36351562 9.20361328 5.015625 C10.3326709 5.69109375 11.46172852 6.3665625 12.625 7.0625 C13.79247288 7.75446857 14.96027999 8.44587354 16.12841797 9.13671875 C18.40404786 10.48434991 20.67548936 11.83833808 22.9453125 13.19580078 C25.47281756 14.68862866 28.01421073 16.12751536 30.59375 17.52734375 C31.21040527 17.8720874 31.82706055 18.21683105 32.46240234 18.57202148 C33.99130783 19.42537974 35.53037345 20.26046733 37.0703125 21.09375 C39 23 39 23 39.4296875 26.59375 C39 30 39 30 37 32 C32.13098207 32.5509984 29.34407134 31.46404225 25.18359375 29 C24.09498047 28.36344482 23.00636719 27.72688965 21.88476562 27.07104492 C20.73541413 26.3811345 19.58632975 25.69077888 18.4375 25 C17.26425552 24.30670992 16.09042569 23.61440948 14.91601562 22.9230957 C11.60036414 20.96580183 8.29916424 18.98496997 5 17 C4.19191895 16.51708496 3.38383789 16.03416992 2.55126953 15.53662109 C-7.44309211 9.55690789 -7.44309211 9.55690789 -10 7 C-9.75 3.4375 -9.75 3.4375 -9 0 C-5.84314696 -1.57842652 -3.39617999 -0.68574582 0 0 Z " fill="#000000" transform="translate(347,328)"/>
<path d="M0 0 C1.175625 0.0825 2.35125 0.165 3.5625 0.25 C5.5625 3.25 5.5625 3.25 5.36743164 6.08764648 C4.52518725 9.39659145 3.36815952 11.88360866 1.68359375 14.84765625 C1.09545898 15.89107178 0.50732422 16.9344873 -0.09863281 18.00952148 C-0.72608398 19.09950439 -1.35353516 20.1894873 -2 21.3125 C-2.95084473 22.98517944 -2.95084473 22.98517944 -3.92089844 24.69165039 C-15.95197165 45.76447165 -15.95197165 45.76447165 -19.4375 49.25 C-23 49 -23 49 -26.4375 48.25 C-27.8841891 45.35662181 -27.75068983 43.480006 -27.4375 40.25 C-26.13836977 37.59895322 -24.81748238 35.23093296 -23.25 32.75 C-22.34053999 31.26078649 -21.43172038 29.77118175 -20.5234375 28.28125 C-20.03069336 27.48203125 -19.53794922 26.6828125 -19.03027344 25.859375 C-16.0810415 21.02777 -13.23889146 16.13249162 -10.375 11.25 C-9.26097798 9.35307111 -8.14523525 7.45715113 -7.02734375 5.5625 C-6.55159912 4.75425781 -6.07585449 3.94601563 -5.58569336 3.11328125 C-3.83928527 0.27922075 -3.83928527 0.27922075 0 0 Z " fill="#000000" transform="translate(338.4375,190.75)"/>
<path d="M0 0 C1.74756747 3.00969953 0.68630391 5.61196656 0.125 8.9375 C-9.78022933 12.22913057 -19.78708876 15.07394967 -29.875 17.75 C-31.03169189 18.06396729 -32.18838379 18.37793457 -33.38012695 18.70141602 C-39.31789577 20.25307378 -44.73105547 21.65477654 -50.875 20.9375 C-52.875 17.9375 -52.875 17.9375 -52.9375 14.9375 C-51.875 11.9375 -51.875 11.9375 -48.85986328 10.4050293 C-44.67840164 8.7681428 -40.39541926 7.58903392 -36.0546875 6.45703125 C-35.23300079 6.23931564 -34.41131409 6.02160004 -33.56472778 5.79728699 C-31.83926838 5.34174758 -30.11308793 4.88893134 -28.38623047 4.4387207 C-25.74862828 3.74964163 -23.11451679 3.04823037 -20.48046875 2.34570312 C-18.7970707 1.90290116 -17.11348315 1.46081888 -15.4296875 1.01953125 C-14.64624969 0.81020462 -13.86281189 0.60087799 -13.05563354 0.38520813 C-3.61999497 -2.05133048 -3.61999497 -2.05133048 0 0 Z " fill="#000000" transform="translate(396.875,262.0625)"/>
</svg>
