<?xml version="1.0" encoding="UTF-8"?>
<svg version="1.1" xmlns="http://www.w3.org/2000/svg" width="512" height="512">
<path d="M0 0 C2.67440852 -0.00407222 5.34879225 -0.00931075 8.02319336 -0.01593018 C14.49499549 -0.02917835 20.96669247 -0.02642996 27.4384985 -0.01769225 C32.70445039 -0.01088065 37.97037308 -0.01001389 43.23632812 -0.0132637 C44.36618417 -0.01395325 44.36618417 -0.01395325 45.51886559 -0.01465673 C47.04968008 -0.01561603 48.58049457 -0.01658868 50.11130905 -0.0175745 C64.42157323 -0.02610227 78.73177948 -0.01633549 93.04203415 -0.0001734 C105.28586424 0.01322739 117.52960895 0.01089856 129.7734375 -0.00292969 C144.03709311 -0.0190319 158.30069814 -0.02527854 172.56436157 -0.0160929 C174.08913167 -0.01513738 175.61390177 -0.01419427 177.13867188 -0.0132637 C177.88863119 -0.01280088 178.63859051 -0.01233805 179.41127586 -0.0118612 C184.66286828 -0.00928519 189.91442824 -0.01361209 195.16601562 -0.02070236 C201.57745912 -0.02916939 207.98879263 -0.02672909 214.40022373 -0.01086013 C217.66319847 -0.00304661 220.92595564 -0.00141679 224.18893433 -0.00980759 C241.60424129 -0.05043772 257.93894233 0.72530316 274.5625 6.45068359 C275.43479248 6.74885986 276.30708496 7.04703613 277.20581055 7.35424805 C306.32922326 17.73161647 331.25594302 37.88032225 347.1875 64.38818359 C347.59049316 65.05398437 347.99348633 65.71978516 348.40869141 66.40576172 C353.24626181 74.55531283 356.99668714 82.92208052 360.0625 91.88818359 C360.33674805 92.68119873 360.61099609 93.47421387 360.89355469 94.29125977 C366.42210539 111.45552106 366.62158936 128.34903674 366.57568359 146.20068359 C366.57975581 148.87509211 366.58499435 151.54947584 366.59161377 154.22387695 C366.60486194 160.69567908 366.60211355 167.16737606 366.59337585 173.63918209 C366.58656424 178.90513398 366.58569749 184.17105667 366.5889473 189.43701172 C366.589407 190.19024908 366.58986669 190.94348644 366.59034032 191.71954918 C366.59129963 193.25036368 366.59227227 194.78117817 366.5932581 196.31199265 C366.60178587 210.62225682 366.59201908 224.93246307 366.575857 239.24271774 C366.5624562 251.48654783 366.56478503 263.73029255 366.57861328 275.97412109 C366.5947155 290.23777671 366.60096214 304.50138173 366.59177649 318.76504517 C366.59082098 320.28981526 366.58987786 321.81458536 366.5889473 323.33935547 C366.58848447 324.08931479 366.58802164 324.8392741 366.58754479 325.61195946 C366.58496878 330.86355187 366.58929569 336.11511183 366.59638596 341.36669922 C366.60485299 347.77814271 366.60241268 354.18947622 366.58654372 360.60090733 C366.5787302 363.86388207 366.57710038 367.12663923 366.58549118 370.38961792 C366.62612427 387.80619013 365.84817413 404.13799411 360.125 420.76318359 C359.82899902 421.63257568 359.53299805 422.50196777 359.22802734 423.39770508 C352.51341625 442.29473462 341.89532777 457.86269592 328.1875 472.38818359 C327.51460938 473.12552734 326.84171875 473.86287109 326.1484375 474.62255859 C312.09240219 489.46825881 293.78455952 499.76552056 274.5625 506.32568359 C273.7772998 506.59606445 272.99209961 506.86644531 272.18310547 507.14501953 C255.05158092 512.62294167 238.18251954 512.82215948 220.375 512.77636719 C217.70059148 512.7804394 215.02620775 512.78567794 212.35180664 512.79229736 C205.88000451 512.80554554 199.40830753 512.80279715 192.9365015 512.79405944 C187.67054961 512.78724784 182.40462692 512.78638108 177.13867188 512.78963089 C176.38543451 512.79009059 175.63219715 512.79055029 174.85613441 512.79102392 C173.32531992 512.79198322 171.79450543 512.79295586 170.26369095 512.79394169 C155.95342677 512.80246946 141.64322052 512.79270268 127.33296585 512.77654059 C115.08913576 512.76313979 102.84539105 512.76546862 90.6015625 512.77929688 C76.33790689 512.79539909 62.07430186 512.80164573 47.81063843 512.79246008 C46.28586833 512.79150457 44.76109823 512.79056145 43.23632812 512.78963089 C42.48636881 512.78916806 41.73640949 512.78870524 40.96372414 512.78822839 C35.71213172 512.78565238 30.46057176 512.78997928 25.20898438 512.79706955 C18.79754088 512.80553658 12.38620737 512.80309628 5.97477627 512.78722732 C2.71180153 512.77941379 -0.55095564 512.77778398 -3.81393433 512.78617477 C-21.22924129 512.82680491 -37.56394233 512.05106403 -54.1875 506.32568359 C-55.05979248 506.02750732 -55.93208496 505.72933105 -56.83081055 505.42211914 C-85.95422326 495.04475072 -110.88094302 474.89604494 -126.8125 448.38818359 C-127.21549316 447.72238281 -127.61848633 447.05658203 -128.03369141 446.37060547 C-132.88412324 438.1993875 -136.62761285 429.82047003 -139.6875 420.82568359 C-140.09887207 419.62359253 -140.09887207 419.62359253 -140.51855469 418.3972168 C-145.94835668 401.47208554 -146.25048902 385.17688366 -146.21655273 367.55322266 C-146.22226401 364.86412458 -146.22913229 362.17505125 -146.23735046 359.48596191 C-146.25443936 352.97358562 -146.25539912 346.46130623 -146.25013756 339.94891337 C-146.24607543 334.64816044 -146.2475635 329.34743587 -146.25288582 324.04668427 C-146.25363424 323.28862686 -146.25438266 322.53056945 -146.25515376 321.74954061 C-146.25668545 320.20890778 -146.25822379 318.66827495 -146.25976873 317.12764212 C-146.27345833 302.7190554 -146.26808144 288.31052314 -146.25658352 273.90193769 C-146.24665845 260.76349715 -146.25958555 247.62519758 -146.28351771 234.48677877 C-146.3079894 220.9486125 -146.31749663 207.41051166 -146.31086498 193.87232375 C-146.30739015 186.2907792 -146.30948877 178.70934289 -146.32711601 171.12781525 C-146.34193961 164.67286014 -146.34234266 158.21808948 -146.3250451 151.76313761 C-146.31661451 148.47948425 -146.31641189 145.1962215 -146.32969666 141.91257477 C-146.39778479 123.67710446 -145.40742496 105.85502045 -138.625 88.70068359 C-138.18063599 87.54572388 -138.18063599 87.54572388 -137.72729492 86.36743164 C-126.6807761 58.51309991 -107.58768138 34.87939073 -81.8125 19.38818359 C-81.14669922 18.98519043 -80.48089844 18.58219727 -79.79492188 18.16699219 C-71.64537076 13.32942178 -63.27860308 9.57899645 -54.3125 6.51318359 C-53.12297729 6.10181152 -53.12297729 6.10181152 -51.90942383 5.68212891 C-34.74516253 0.1535782 -17.85164685 -0.04590577 0 0 Z M-43.8125 142.38818359 C-43.8125 217.62818359 -43.8125 292.86818359 -43.8125 370.38818359 C-25.9925 370.38818359 -8.1725 370.38818359 10.1875 370.38818359 C10.1875 344.64818359 10.1875 318.90818359 10.1875 292.38818359 C33.5625 292.57568359 33.5625 292.57568359 40.81787109 292.65844727 C67.48975098 292.83545079 94.04293621 288.83924346 114.01953125 269.57958984 C115.09267578 268.49484375 115.09267578 268.49484375 116.1875 267.38818359 C116.81011719 266.79908203 117.43273437 266.20998047 118.07421875 265.60302734 C130.5937944 252.80211292 134.68820168 234.76830509 134.54174805 217.43164062 C133.96772154 197.30623073 125.76669997 178.37494257 111.1875 164.38818359 C70.07996876 129.47940706 2.11751058 142.38818359 -43.8125 142.38818359 Z M220.875 211.88818359 C217.95380986 215.26868036 215.70593485 218.61053132 213.1875 222.38818359 C212.5275 215.45818359 211.8675 208.52818359 211.1875 201.38818359 C195.0175 201.38818359 178.8475 201.38818359 162.1875 201.38818359 C162.1875 257.15818359 162.1875 312.92818359 162.1875 370.38818359 C179.3475 370.38818359 196.5075 370.38818359 214.1875 370.38818359 C214.21328125 362.66154297 214.2390625 354.93490234 214.265625 346.97412109 C214.29079103 342.07955662 214.31712215 337.18505408 214.34765625 332.29052734 C214.39601163 324.52148195 214.44004866 316.75257991 214.45849609 308.98339844 C214.47363845 302.71978631 214.50804175 296.45654912 214.55580902 290.19310379 C214.57064767 287.80334354 214.57854243 285.41352977 214.57938385 283.0237236 C214.58174767 279.67654175 214.60878217 276.33040101 214.64160156 272.98339844 C214.63405602 271.50093628 214.63405602 271.50093628 214.62635803 269.98852539 C214.73557807 262.78996421 216.20502393 259.46103773 221.25 254.26318359 C230.38411679 248.43289628 239.26207431 247.85209125 249.875 248.13818359 C251.16083984 248.15623047 252.44667969 248.17427734 253.77148438 248.19287109 C256.91096005 248.23955475 260.04881491 248.30502267 263.1875 248.38818359 C264.02037644 245.483236 264.30969788 242.91304441 264.30102539 239.89501953 C264.30094986 239.01440857 264.30087433 238.13379761 264.30079651 237.22650146 C264.29563522 236.28470032 264.29047394 235.34289917 264.28515625 234.37255859 C264.2837413 233.40159241 264.28232635 232.43062622 264.28086853 231.43023682 C264.27527663 228.33285424 264.26272559 225.23554428 264.25 222.13818359 C264.24498395 220.03662214 264.24042123 217.93505955 264.23632812 215.83349609 C264.22530985 210.68503067 264.20805074 205.53661944 264.1875 200.38818359 C247.95913228 194.68896917 232.23973914 199.41007814 220.875 211.88818359 Z " fill="#4B4BAB" transform="translate(145.8125,-0.38818359375)"/>
<path d="M0 0 C6.88875 -0.061875 13.7775 -0.12375 20.875 -0.1875 C23.0288623 -0.21481201 25.18272461 -0.24212402 27.40185547 -0.27026367 C29.14029381 -0.27903887 30.87873839 -0.28668035 32.6171875 -0.29296875 C33.4944751 -0.30831665 34.3717627 -0.32366455 35.27563477 -0.33947754 C44.0939623 -0.34314471 52.2257532 1.47394289 59.1796875 7.1328125 C67.55128384 15.71998643 69.38511434 25.78809702 69.29321289 37.28857422 C69.09846222 46.3850145 67.32672704 52.56217322 60.9453125 59.27734375 C52.7014183 66.57765969 41.61223328 67.32482166 31.0546875 67.1953125 C30.25877197 67.19329834 29.46285645 67.19128418 28.64282227 67.18920898 C25.72015471 67.17888548 22.79757045 67.15096513 19.875 67.125 C13.31625 67.08375 6.7575 67.0425 0 67 C0 44.89 0 22.78 0 0 Z " fill="#5F5FC1" transform="translate(156,184)"/>
</svg>
