<?xml version="1.0" encoding="UTF-8"?>
<svg version="1.1" xmlns="http://www.w3.org/2000/svg" width="512" height="512">
<path d="M0 0 C1.38361414 -0.00230963 2.76722704 -0.00548949 4.15083742 -0.00945449 C7.92011907 -0.01774225 11.68929841 -0.01370487 15.45858026 -0.00748205 C19.53635336 -0.00293372 23.61410958 -0.00995307 27.69187927 -0.01544189 C35.66730243 -0.02431223 43.64268784 -0.02242443 51.61811244 -0.01661661 C58.10275702 -0.01209082 64.58739104 -0.01149118 71.07203674 -0.01366425 C71.9966922 -0.01397071 72.92134767 -0.01427718 73.87402299 -0.01459293 C75.75273081 -0.01523241 77.63143863 -0.01588084 79.51014644 -0.01653811 C97.10649233 -0.0222345 114.70281735 -0.01569438 132.29915982 -0.00493738 C147.38153855 0.0039975 162.46388648 0.00244526 177.54626465 -0.0067749 C195.08176222 -0.01748976 212.61724152 -0.02168524 230.15274191 -0.01555037 C232.02434889 -0.01491331 233.89595588 -0.01428457 235.76756287 -0.01366425 C237.14868568 -0.01320142 237.14868568 -0.01320142 238.55770996 -0.01272924 C245.03087383 -0.01100595 251.50402605 -0.01390951 257.97718811 -0.01862335 C265.87108073 -0.0242457 273.7649336 -0.02268731 281.6588217 -0.01206186 C285.68259341 -0.00682335 289.70629896 -0.00471721 293.73007011 -0.01136017 C297.42000864 -0.01735964 301.10982024 -0.01397924 304.79974741 -0.00340506 C306.75275706 -0.00014496 308.70577567 -0.00660609 310.65877581 -0.01351953 C329.91347489 0.07133788 345.63375709 5.25260451 360.00964355 18.28521729 C376.58031724 35.36419385 377.38231516 57.17798493 377.26037598 79.54107666 C377.25952798 81.74045297 377.26000821 83.93983012 377.26170349 86.13920593 C377.26255813 92.06169926 377.24501899 97.98400732 377.22398162 103.9064579 C377.20512562 110.11371527 377.20345738 116.32097769 377.1999054 122.52825928 C377.19061101 134.261077 377.16603274 145.99381006 377.13585693 157.72659063 C377.11209724 167.1033872 377.09572918 176.48017478 377.08459473 185.85699463 C377.08380656 186.51889107 377.08301839 187.1807875 377.08220633 187.86274141 C377.07829072 191.18385904 377.07450651 194.5049768 377.07077062 197.82609463 C377.0394807 225.30209897 376.98677127 252.77802837 376.9197998 280.25396729 C372.43360004 279.64224658 368.2392308 278.88263877 363.90759277 277.55841064 C362.18019867 277.03454269 362.18019867 277.03454269 360.41790771 276.50009155 C359.17845398 276.11851898 357.93900024 275.73694641 356.6619873 275.34381104 C355.33593695 274.93968923 354.00974101 274.53604486 352.68341064 274.13284302 C349.85612501 273.2723286 347.02982782 272.4086686 344.20428467 271.54244995 C339.7716567 270.18360035 335.33690687 268.83177678 330.9017334 267.48126221 C326.37226841 266.10168637 321.84293699 264.72168119 317.31436157 263.33918762 C303.88400405 259.23915544 290.44522005 255.16749911 277.00189209 251.11019897 C273.59118649 250.0804719 270.18099631 249.04905198 266.77087402 248.01739502 C264.70855951 247.39435428 262.64622358 246.77138447 260.5838623 246.14849854 C259.6546698 245.86715057 258.72547729 245.58580261 257.76812744 245.29592896 C256.49283173 244.91127975 256.49283173 244.91127975 255.19177246 244.51885986 C254.45818512 244.29716629 253.72459778 244.07547272 252.96878052 243.84706116 C242.55989389 240.83412559 232.77403925 241.65441231 222.9197998 246.25396729 C214.42000513 251.24527974 208.17201315 258.84486539 204.9822998 268.19146729 C202.72394643 277.57905505 203.9459641 286.00317488 206.7088623 295.11724854 C207.0160318 296.17124344 207.32320129 297.22523834 207.63967896 298.31117249 C208.71318775 301.96490304 209.81353221 305.61007007 210.9197998 309.25396729 C211.34546551 310.66212349 211.77104043 312.07030715 212.1965332 313.47851562 C215.77551205 325.30630075 219.41568266 337.11519243 223.06079102 348.92272949 C224.56049608 353.78111182 226.0571628 358.64040793 227.54948807 363.50106239 C228.24056738 365.74762169 228.93610218 367.99276892 229.63180542 370.23789978 C230.05404873 371.61191682 230.47606826 372.98600265 230.89782715 374.36016846 C231.26532074 375.55051193 231.63281433 376.74085541 232.01144409 377.9672699 C232.8663904 381.06071638 233.41765037 384.08788074 233.9197998 387.25396729 C202.16517814 387.3224858 170.41057762 387.37553791 138.65589925 387.40716327 C134.90231324 387.41091515 131.14872739 387.41479814 127.3951416 387.41876221 C126.27429019 387.4199426 126.27429019 387.4199426 125.13079532 387.42114685 C113.05038361 387.43418131 100.97001496 387.4578243 88.88962875 387.48542567 C76.48316251 387.51353451 64.07671875 387.5301551 51.67022198 387.53623277 C44.02201431 387.54033788 36.37392839 387.55327771 28.72575822 387.57771669 C22.8494815 387.59553102 16.97326641 387.59731913 11.09696198 387.59329033 C8.69486685 387.5941127 6.29276692 387.60004043 3.89069939 387.61158371 C-17.42067453 387.70893575 -35.90418402 385.88921962 -52.01818848 370.50933838 C-64.87893416 357.63111292 -70.24502801 341.64915038 -70.3523491 323.64938945 C-70.34668012 322.09508683 -70.34668012 322.09508683 -70.34089661 320.50938416 C-70.34472215 319.3787194 -70.3485477 318.24805464 -70.35248917 317.08312732 C-70.36274805 313.32191045 -70.35884055 309.56084827 -70.3548584 305.79962158 C-70.3581178 303.09168053 -70.36432922 300.3837479 -70.37034607 297.67581177 C-70.38305341 291.09994241 -70.38489171 284.52411397 -70.38254581 277.9482344 C-70.38075795 272.59916534 -70.38252229 267.25010862 -70.38677025 261.90104103 C-70.38736544 261.13779848 -70.38796063 260.37455592 -70.38857385 259.58818481 C-70.38978569 258.03731292 -70.39099982 256.48644103 -70.39221623 254.93556914 C-70.40307661 240.41226636 -70.40093647 225.88898684 -70.39483138 211.36568276 C-70.38966421 198.1032651 -70.40091506 184.84092094 -70.4199296 171.57851782 C-70.43934033 157.93432531 -70.4475583 144.29016751 -70.44380635 130.64596111 C-70.44189912 122.99636307 -70.44433496 115.34682755 -70.45852089 107.69724083 C-70.47047703 101.18456379 -70.47179245 94.67198777 -70.45973072 88.15930923 C-70.45387133 84.84202915 -70.45431005 81.52508354 -70.46473312 78.20779228 C-70.55741508 46.40571928 -70.55741508 46.40571928 -63.5177002 33.06646729 C-63.17327881 32.4013916 -62.82885742 31.73631592 -62.47399902 31.05108643 C-54.6610588 16.63722898 -41.67537899 7.02362678 -26.0802002 2.25396729 C-17.35910255 0.37583154 -8.897277 -0.03149553 0 0 Z M-33.0802002 41.25396729 C-46.46025809 58.59343007 -40.0802002 81.09391397 -40.0802002 102.25396729 C87.6297998 102.25396729 215.3397998 102.25396729 346.9197998 102.25396729 C350.2541194 69.02423456 350.2541194 69.02423456 337.9197998 39.25396729 C328.78230467 30.75262688 319.31454464 29.80891586 307.19363403 29.86628723 C305.81189364 29.86210893 304.43015668 29.85662869 303.04842603 29.84996742 C299.27040066 29.83555904 295.4925943 29.83974301 291.71455717 29.84713423 C287.6326466 29.85187508 283.55078279 29.83934794 279.46888733 29.82911682 C271.47934193 29.81194126 263.48987522 29.81108625 255.50031616 29.81632973 C249.00462136 29.82037507 242.50894977 29.81892353 236.01325607 29.81358147 C235.08790542 29.81283304 234.16255476 29.81208462 233.20916318 29.81131352 C231.32916503 29.80978201 229.44916688 29.80824366 227.56916873 29.80669855 C209.94806091 29.79297794 192.32699751 29.79840806 174.7058907 29.80988377 C158.5960327 29.81981506 142.48628958 29.80687648 126.3764493 29.78294957 C109.82254765 29.75854895 93.26869948 29.74895311 76.71478021 29.7556023 C67.42594523 29.75909246 58.13719858 29.75687591 48.84837723 29.73935127 C40.94080571 29.72461724 33.03338472 29.72400952 25.12581612 29.74142218 C21.09401604 29.7499248 17.06248472 29.7521 13.03069878 29.73677063 C9.33439531 29.72289119 5.63859003 29.72772787 1.94231515 29.74700987 C-0.01655467 29.75252664 -1.97545007 29.7385255 -3.93427122 29.72365576 C-15.55577741 29.82004545 -25.15044364 32.38705768 -33.0802002 41.25396729 Z " fill="#000000" transform="translate(94.0802001953125,39.74603271484375)"/>
<path d="M0 0 C1.42320049 0.43986081 2.84672748 0.87866635 4.27055359 1.3164978 C8.10816792 2.49943724 11.94150916 3.69569323 15.774189 4.89450836 C19.78125 6.14550967 23.79189766 7.38488788 27.80249023 8.62451172 C29.44029549 9.13081872 31.0780976 9.63713592 32.71589661 10.14346313 C33.9418904 10.52244184 33.9418904 10.52244184 35.19265175 10.90907669 C37.69895722 11.68444042 40.20476946 12.4613813 42.710495 13.23861694 C53.34258189 16.53396824 63.98978647 19.77475547 74.65372467 22.96549988 C76.96519374 23.65715409 79.27631695 24.34995226 81.58734131 25.04309082 C90.37125985 27.67742287 90.37125985 27.67742287 99.16009521 30.29528809 C101.90102122 31.10883434 104.64057286 31.92671274 107.37861633 32.74990845 C109.84106922 33.49015786 112.30545229 34.22403125 114.7721405 34.95004272 C128.2984247 39.03982144 128.2984247 39.03982144 132.3828125 43.71484375 C134.95782215 49.00915239 135.54694498 53.21807709 133.7890625 58.890625 C130.06324378 65.11892735 125.23842577 67.46412392 118.53515625 69.609375 C117.63902115 69.91580933 116.74288605 70.22224365 115.81959534 70.53796387 C112.96180622 71.50974557 110.09492327 72.45056789 107.2265625 73.390625 C105.3593428 74.02011236 103.492799 74.65160837 101.62695312 75.28515625 C94.06606652 77.84080013 86.49829058 80.36428043 78.87939453 82.7421875 C77.92581558 83.04539917 76.97223663 83.34861084 75.98976135 83.66101074 C74.18192136 84.23491376 72.37016302 84.79667304 70.55406189 85.34387207 C69.73837234 85.60486694 68.9226828 85.86586182 68.08227539 86.13476562 C67.01608727 86.46377869 67.01608727 86.46377869 65.92835999 86.79943848 C61.86556037 88.87174128 59.34876308 91.6922431 57.43092346 95.79855347 C56.91512978 97.40236374 56.91512978 97.40236374 56.38891602 99.03857422 C55.98822403 100.25688934 55.58753204 101.47520447 55.17469788 102.73043823 C54.97009508 103.37625729 54.76549229 104.02207634 54.55468941 104.68746567 C53.90763532 106.72789814 53.24143384 108.76118327 52.5700531 110.79373169 C50.90658956 115.84239092 49.27445527 120.90104104 47.64440918 125.96057129 C46.26449911 130.24075278 44.87116217 134.51608819 43.45945549 138.78589249 C42.80698915 140.77751588 42.17442468 142.77474054 41.54237366 144.7729187 C38.96299707 152.59463595 36.60751226 159.37665121 28.9140625 163.390625 C23.52687256 164.25257539 19.49680723 163.67881488 14.5390625 161.390625 C7.26108298 154.77427998 5.49366683 142.87535921 2.74609375 133.69921875 C2.26010119 132.09213685 1.77357193 130.48521716 1.2865448 128.87844849 C-0.01344362 124.58442595 -1.30636124 120.28830708 -2.59753418 115.99162674 C-3.93742011 111.53567255 -5.28230852 107.08122905 -6.62695312 102.62670898 C-7.16880476 100.83156186 -7.71064434 99.0364111 -8.25247192 97.24125671 C-8.52078953 96.35229895 -8.78910713 95.46334118 -9.06555557 94.5474453 C-9.87987846 91.84834006 -10.69329169 89.14896196 -11.50656128 86.44953918 C-14.61810992 76.12709519 -17.76105722 65.81510719 -20.94838905 55.51581383 C-22.33782808 51.02304942 -23.72017347 46.52809412 -25.10440063 42.03372192 C-25.83759825 39.66119807 -26.57451258 37.28981939 -27.3152771 34.91964722 C-28.33215732 31.66426517 -29.33548682 28.40499294 -30.3359375 25.14453125 C-30.6316011 24.2116629 -30.92726471 23.27879456 -31.23188782 22.31765747 C-33.19395829 15.85762274 -34.4141835 10.18371933 -32.0234375 3.640625 C-23.94411742 -8.61765375 -11.59304012 -3.6587515 0 0 Z " fill="#000000" transform="translate(353.2109375,308.109375)"/>
<path d="M0 0 C2.40591629 3.93695393 3.35575503 6.78067121 3.0625 11.375 C1.85797215 15.62627477 0.67430056 17.80689948 -2.5625 20.8125 C-6.87812738 22.81047564 -10.2605856 23.20477514 -14.9375 22.375 C-19.32160756 20.18294622 -22.06842657 17.94384617 -23.9375 13.375 C-24.51825783 9.40648815 -24.34663488 6.32247025 -22.75 2.625 C-20.11728761 -0.64319469 -17.58699515 -3.0008667 -13.625 -4.5 C-8.03197761 -4.76014058 -4.21214394 -3.76404352 0 0 Z " fill="#000000" transform="translate(158.9375,96.625)"/>
<path d="M0 0 C3.13847192 2.60426394 4.71029542 4.13088625 6 8 C6.38773716 12.73039335 6.48117872 15.05546399 4.3125 19.3125 C1.42364567 22.66981719 -0.62793885 24.64419083 -5.109375 25.31640625 C-9.15070942 25.52660989 -11.65691962 25.15883351 -15.375 23.4375 C-18.96303449 20.10575368 -20.81121719 16.95759743 -21.12890625 11.98046875 C-20.79631745 6.70944019 -18.95593738 3.61194283 -15 0 C-9.65156874 -2.42193113 -5.286272 -2.37161888 0 0 Z " fill="#000000" transform="translate(201,94)"/>
<path d="M0 0 C5.70557222 4.96136715 5.70557222 4.96136715 6.30859375 9.13671875 C6.55728899 14.05786993 6.43214067 17.19141881 3.1875 21.0625 C0.05003989 24.35489642 -2.27075695 24.95295206 -6.875 25.25 C-11.97722739 25.16589735 -14.55754826 23.28651101 -18.3125 19.9375 C-20.78911404 15.62635704 -20.73929637 11.85600981 -20 7 C-18.52656906 3.4765782 -17.34863723 1.73159664 -13.9765625 -0.09765625 C-8.79299583 -2.14100762 -5.20199182 -2.4009193 0 0 Z " fill="#000000" transform="translate(110,94)"/>
</svg>
